<svg xmlns="http://www.w3.org/2000/svg" viewBox="0 0 100 100">
  <path d="M50 10 C25 10 10 35 10 50 C10 75 25 90 50 90 C75 90 90 75 90 50 C90 35 75 10 50 10Z" fill="#10b981" opacity="0.2"/>
  <path d="M50 20 C35 20 25 40 25 50 C25 65 35 80 50 80 C65 80 75 65 75 50 C75 40 65 20 50 20Z" fill="#10b981" opacity="0.4"/>
  <path d="M50 30 C40 30 35 45 35 50 C35 60 40 70 50 70 C60 70 65 60 65 50 C65 45 60 30 50 30Z" fill="#059669"/>
  <path d="M50 40 C45 40 42 48 42 50 C42 55 45 60 50 60 C55 60 58 55 58 50 C58 48 55 40 50 40Z" fill="#34d399"/>
  <path d="M68 32 C68 32 75 45 72 55 C70 60 65 65 62 62 C60 60 62 55 62 55 C62 55 65 50 65 45 C65 40 68 32 68 32Z" fill="#047857"/>
</svg>
